<svg width="14" height="20" viewBox="0 0 14 20" fill="none" xmlns="http://www.w3.org/2000/svg">
<path d="M13.6478 5.46087C13.6184 5.38261 13.5671 5.25869 13.4937 5.08913C13.4203 4.91956 13.369 4.80869 13.3396 4.75652C12.7233 3.47826 11.8208 2.53261 10.6321 1.91956C9.4434 1.30652 8.20335 1 6.91195 1C5.23899 1 3.72746 1.48913 2.37736 2.46739C1.02725 3.44565 0.234801 4.82174 0 6.59565V7.33913L0.0440252 7.53478V7.80869C0.102725 8.22608 0.256813 8.70217 0.506289 9.23695C0.755765 9.77174 0.983229 10.2022 1.18868 10.5283C1.39413 10.8543 1.72432 11.35 2.17925 12.0152C2.63417 12.6804 2.93501 13.1174 3.08176 13.3261C3.93291 14.6043 5.23899 16.4956 7 19C7.2348 18.6609 8.04193 17.4348 9.42138 15.3217C9.48008 15.2435 9.59015 15.087 9.75157 14.8522C9.913 14.6174 10.0231 14.4348 10.0818 14.3043C10.1405 14.2261 10.2358 14.1152 10.3679 13.9717C10.5 13.8283 10.5954 13.7174 10.6541 13.6391C10.8595 13.3 11.3071 12.6543 11.9969 11.7022C12.6866 10.75 13.1929 9.94782 13.5157 9.29565C13.8386 8.64348 14 8.00434 14 7.37826V6.51739C14 6.23043 13.8826 5.87826 13.6478 5.46087ZM6.95597 9.33478C5.81132 9.33478 5.01887 8.83913 4.57862 7.84782C4.54927 7.71739 4.53459 7.52174 4.53459 7.26087V6.75217C4.53459 6.1 4.78407 5.59782 5.28302 5.24565C5.78197 4.89348 6.36897 4.71739 7.04402 4.71739C7.77778 4.71739 8.38679 4.93913 8.87107 5.38261C9.35535 5.82609 9.59748 6.37391 9.59748 7.02608C9.59748 7.67826 9.34067 8.22608 8.82704 8.66956C8.31342 9.11304 7.68973 9.33478 6.95597 9.33478Z" fill="#FF574D"/>
</svg>
