<svg width="20" height="20" viewBox="0 0 20 20" fill="none" xmlns="http://www.w3.org/2000/svg">
<path d="M19 5.89192V14.1154C19 14.8804 18.7037 15.6141 18.1762 16.1551C17.6488 16.6961 16.9334 17 16.1875 17H3.8125C3.06658 17 2.35121 16.6961 1.82376 16.1551C1.29632 15.6141 1 14.8804 1 14.1154V5.89192L9.71425 11.1512C9.80082 11.2035 9.89949 11.2311 10 11.2311C10.1005 11.2311 10.1992 11.2035 10.2857 11.1512L19 5.89192ZM16.1875 2C16.8795 1.99989 17.5473 2.26147 18.0631 2.7347C18.5789 3.20793 18.9064 3.85959 18.9831 4.565L10 9.98462L1.01688 4.565C1.09355 3.85959 1.42111 3.20793 1.93689 2.7347C2.45267 2.26147 3.12046 1.99989 3.8125 2H16.1875Z" fill="#FF574D"/>
</svg>
