<svg width="20" height="20" viewBox="0 0 20 20" fill="none" xmlns="http://www.w3.org/2000/svg">
<path d="M18.7499 15.9676L16.2121 18.4851C15.8375 18.8693 15.3409 18.9994 14.8573 19C12.7188 18.9359 10.6974 17.8854 9.03763 16.8068C6.3133 14.8248 3.81361 12.3673 2.24476 9.39748C1.64305 8.15213 0.937033 6.56317 1.00449 5.17313C1.0105 4.65023 1.15141 4.13704 1.51968 3.79999L4.05747 1.26347C4.58445 0.815228 5.09407 0.970208 5.4313 1.49233L7.47297 5.36386C7.68786 5.82251 7.56459 6.31394 7.24398 6.64168L6.309 7.57618C6.25128 7.65524 6.21453 7.74524 6.2136 7.84319C6.57213 9.23102 7.65829 10.5102 8.61781 11.3905C9.57732 12.2708 10.6087 13.4635 11.9475 13.7458C12.1129 13.792 12.3156 13.8082 12.434 13.6981L13.5217 12.592C13.8966 12.3078 14.438 12.1689 14.8383 12.4013H14.8573L18.54 14.5754C19.0806 14.9143 19.137 15.5692 18.7499 15.9676Z" fill="#FF574D"/>
</svg>
